<mxfile host="drawio-plugin" modified="2023-10-31T12:19:36.943Z" agent="5.0 (Windows NT 6.2; Win64; x64) AppleWebKit/537.36 (KHTML, like Gecko) Chrome/104.0.5112.102 Safari/537.36" version="20.5.3" etag="W9anUK4r1PQObQrxyqh3" type="embed"><diagram id="teEZPf6OXwpVIOS8RQyX" name="Page-1"><mxGraphModel dx="907" dy="562" grid="1" gridSize="10" guides="1" tooltips="1" connect="1" arrows="1" fold="1" page="1" pageScale="1" pageWidth="850" pageHeight="1100" background="#F1FAEE" math="0" shadow="0"><root><mxCell id="0"/><mxCell id="1" parent="0"/><mxCell id="2" value="employer" style="swimlane;childLayout=stackLayout;horizontal=1;startSize=30;horizontalStack=0;rounded=1;fontSize=14;fontStyle=0;strokeWidth=2;resizeParent=0;resizeLast=1;shadow=0;dashed=0;align=center;strokeColor=#457B9D;fontColor=#1D3557;fillColor=#A8DADC;" vertex="1" parent="1"><mxGeometry x="915" y="70" width="160" height="120" as="geometry"/></mxCell><mxCell id="3" value="+Attribute1&#10;+Attribute2&#10;+Attribute3" style="align=left;strokeColor=none;fillColor=none;spacingLeft=4;fontSize=12;verticalAlign=top;resizable=0;rotatable=0;part=1;fontColor=#1D3557;" vertex="1" parent="2"><mxGeometry y="30" width="160" height="90" as="geometry"/></mxCell><mxCell id="4" value="candidate" style="swimlane;childLayout=stackLayout;horizontal=1;startSize=30;horizontalStack=0;rounded=1;fontSize=14;fontStyle=0;strokeWidth=2;resizeParent=0;resizeLast=1;shadow=0;dashed=0;align=center;strokeColor=#457B9D;fontColor=#1D3557;fillColor=#A8DADC;" vertex="1" parent="1"><mxGeometry x="415" y="70" width="160" height="120" as="geometry"/></mxCell><mxCell id="5" value="+Attribute1&#10;+Attribute2&#10;+Attribute3" style="align=left;strokeColor=none;fillColor=none;spacingLeft=4;fontSize=12;verticalAlign=top;resizable=0;rotatable=0;part=1;fontColor=#1D3557;" vertex="1" parent="4"><mxGeometry y="30" width="160" height="90" as="geometry"/></mxCell><mxCell id="6" value="chat-GPT" style="swimlane;childLayout=stackLayout;horizontal=1;startSize=30;horizontalStack=0;rounded=1;fontSize=14;fontStyle=0;strokeWidth=2;resizeParent=0;resizeLast=1;shadow=0;dashed=0;align=center;strokeColor=#457B9D;fontColor=#1D3557;fillColor=#A8DADC;" vertex="1" parent="1"><mxGeometry x="660" y="70" width="160" height="120" as="geometry"/></mxCell><mxCell id="7" value="+Attribute1&#10;+Attribute2&#10;+Attribute3" style="align=left;strokeColor=none;fillColor=none;spacingLeft=4;fontSize=12;verticalAlign=top;resizable=0;rotatable=0;part=1;fontColor=#1D3557;" vertex="1" parent="6"><mxGeometry y="30" width="160" height="90" as="geometry"/></mxCell><mxCell id="40" style="edgeStyle=orthogonalEdgeStyle;rounded=0;orthogonalLoop=1;jettySize=auto;html=1;entryX=1;entryY=0.5;entryDx=0;entryDy=0;strokeColor=#457B9D;fontColor=#1D3557;fillColor=#A8DADC;" edge="1" parent="1" source="9" target="11"><mxGeometry relative="1" as="geometry"/></mxCell><mxCell id="9" value="开始" style="strokeWidth=2;html=1;shape=mxgraph.flowchart.start_2;whiteSpace=wrap;strokeColor=#457B9D;fontColor=#1D3557;fillColor=#A8DADC;" vertex="1" parent="1"><mxGeometry x="1140" y="235" width="60" height="60" as="geometry"/></mxCell><mxCell id="10" style="edgeStyle=orthogonalEdgeStyle;rounded=0;orthogonalLoop=1;jettySize=auto;html=1;strokeColor=#457B9D;fontColor=#1D3557;fillColor=#A8DADC;" edge="1" parent="1" source="11" target="13"><mxGeometry relative="1" as="geometry"/></mxCell><mxCell id="11" value="找人" style="rounded=1;whiteSpace=wrap;html=1;absoluteArcSize=1;arcSize=14;strokeWidth=2;strokeColor=#457B9D;fontColor=#1D3557;fillColor=#A8DADC;" vertex="1" parent="1"><mxGeometry x="940" y="240" width="110" height="50" as="geometry"/></mxCell><mxCell id="12" value="" style="edgeStyle=orthogonalEdgeStyle;rounded=0;orthogonalLoop=1;jettySize=auto;html=1;strokeColor=#457B9D;fontColor=#1D3557;fillColor=#A8DADC;" edge="1" parent="1" source="13" target="16"><mxGeometry relative="1" as="geometry"/></mxCell><mxCell id="13" value="AI推人" style="rounded=1;whiteSpace=wrap;html=1;absoluteArcSize=1;arcSize=14;strokeWidth=2;strokeColor=#457B9D;fontColor=#1D3557;fillColor=#A8DADC;" vertex="1" parent="1"><mxGeometry x="695" y="240" width="110" height="50" as="geometry"/></mxCell><mxCell id="41" style="edgeStyle=orthogonalEdgeStyle;rounded=0;orthogonalLoop=1;jettySize=auto;html=1;entryX=1;entryY=0.5;entryDx=0;entryDy=0;entryPerimeter=0;strokeColor=#457B9D;fontColor=#1D3557;fillColor=#A8DADC;" edge="1" parent="1" source="16" target="22"><mxGeometry relative="1" as="geometry"/></mxCell><mxCell id="42" style="edgeStyle=orthogonalEdgeStyle;rounded=0;orthogonalLoop=1;jettySize=auto;html=1;entryX=0.5;entryY=0;entryDx=0;entryDy=0;strokeColor=#457B9D;fontColor=#1D3557;fillColor=#A8DADC;" edge="1" parent="1" source="16" target="21"><mxGeometry relative="1" as="geometry"/></mxCell><mxCell id="16" value="匹配到需要找的人" style="rhombus;whiteSpace=wrap;html=1;fillColor=#A8DADC;strokeColor=#457B9D;fontColor=#1D3557;rounded=1;arcSize=14;strokeWidth=2;" vertex="1" parent="1"><mxGeometry x="690" y="370" width="120" height="100" as="geometry"/></mxCell><mxCell id="19" value="N" style="text;html=1;align=center;verticalAlign=middle;resizable=0;points=[];autosize=1;strokeColor=none;fillColor=none;fontColor=#1D3557;" vertex="1" parent="1"><mxGeometry x="575" y="390" width="30" height="30" as="geometry"/></mxCell><mxCell id="20" style="edgeStyle=orthogonalEdgeStyle;rounded=0;orthogonalLoop=1;jettySize=auto;html=1;strokeColor=#457B9D;fontColor=#1D3557;fillColor=#A8DADC;" edge="1" parent="1" source="21" target="25"><mxGeometry relative="1" as="geometry"/></mxCell><mxCell id="21" value="发起聊天" style="whiteSpace=wrap;html=1;fillColor=#A8DADC;strokeColor=#457B9D;fontColor=#1D3557;rounded=1;arcSize=14;strokeWidth=2;" vertex="1" parent="1"><mxGeometry x="940" y="440" width="110" height="50" as="geometry"/></mxCell><mxCell id="22" value="结束" style="strokeWidth=2;html=1;shape=mxgraph.flowchart.terminator;whiteSpace=wrap;strokeColor=#457B9D;fontColor=#1D3557;fillColor=#A8DADC;" vertex="1" parent="1"><mxGeometry x="420" y="390" width="100" height="60" as="geometry"/></mxCell><mxCell id="24" value="" style="edgeStyle=orthogonalEdgeStyle;rounded=0;orthogonalLoop=1;jettySize=auto;html=1;strokeColor=#457B9D;fontColor=#1D3557;fillColor=#A8DADC;" edge="1" parent="1" source="25" target="27"><mxGeometry relative="1" as="geometry"/></mxCell><mxCell id="25" value="聊天并查看简历" style="whiteSpace=wrap;html=1;fillColor=#A8DADC;strokeColor=#457B9D;fontColor=#1D3557;rounded=1;arcSize=14;strokeWidth=2;" vertex="1" parent="1"><mxGeometry x="940" y="560" width="110" height="50" as="geometry"/></mxCell><mxCell id="26" value="" style="edgeStyle=orthogonalEdgeStyle;rounded=0;orthogonalLoop=1;jettySize=auto;html=1;strokeColor=#457B9D;fontColor=#1D3557;fillColor=#A8DADC;" edge="1" parent="1" source="27" target="30"><mxGeometry relative="1" as="geometry"><mxPoint x="550" y="715" as="targetPoint"/></mxGeometry></mxCell><mxCell id="27" value="发起面试邀约" style="whiteSpace=wrap;html=1;fillColor=#A8DADC;strokeColor=#457B9D;fontColor=#1D3557;rounded=1;arcSize=14;strokeWidth=2;" vertex="1" parent="1"><mxGeometry x="940" y="690.5" width="110" height="50" as="geometry"/></mxCell><mxCell id="28" value="" style="edgeStyle=orthogonalEdgeStyle;rounded=0;orthogonalLoop=1;jettySize=auto;html=1;strokeColor=#457B9D;fontColor=#1D3557;fillColor=#A8DADC;" edge="1" parent="1" source="30" target="32"><mxGeometry relative="1" as="geometry"/></mxCell><mxCell id="29" value="" style="edgeStyle=orthogonalEdgeStyle;rounded=0;orthogonalLoop=1;jettySize=auto;html=1;strokeColor=#457B9D;fontColor=#1D3557;fillColor=#A8DADC;" edge="1" parent="1" source="30" target="34"><mxGeometry relative="1" as="geometry"/></mxCell><mxCell id="30" value="是否同意" style="rhombus;whiteSpace=wrap;html=1;fillColor=#A8DADC;strokeColor=#457B9D;fontColor=#1D3557;rounded=1;arcSize=14;strokeWidth=2;" vertex="1" parent="1"><mxGeometry x="435" y="676.25" width="110" height="77.5" as="geometry"/></mxCell><mxCell id="31" value="" style="edgeStyle=orthogonalEdgeStyle;rounded=0;orthogonalLoop=1;jettySize=auto;html=1;strokeColor=#457B9D;fontColor=#1D3557;fillColor=#A8DADC;" edge="1" parent="1" source="32" target="37"><mxGeometry relative="1" as="geometry"/></mxCell><mxCell id="32" value="添加面试邀约" style="rounded=1;whiteSpace=wrap;html=1;fillColor=#A8DADC;strokeColor=#457B9D;fontColor=#1D3557;arcSize=14;strokeWidth=2;" vertex="1" parent="1"><mxGeometry x="430" y="842.5" width="120" height="60" as="geometry"/></mxCell><mxCell id="33" value="Y" style="text;html=1;align=center;verticalAlign=middle;resizable=0;points=[];autosize=1;strokeColor=none;fillColor=none;fontColor=#1D3557;" vertex="1" parent="1"><mxGeometry x="490" y="775" width="30" height="30" as="geometry"/></mxCell><mxCell id="34" value="结束" style="ellipse;whiteSpace=wrap;html=1;fillColor=#A8DADC;strokeColor=#457B9D;fontColor=#1D3557;rounded=1;arcSize=14;strokeWidth=2;" vertex="1" parent="1"><mxGeometry x="225" y="692.5" width="80" height="45" as="geometry"/></mxCell><mxCell id="35" value="N" style="text;html=1;align=center;verticalAlign=middle;resizable=0;points=[];autosize=1;strokeColor=none;fillColor=none;fontColor=#1D3557;" vertex="1" parent="1"><mxGeometry x="350" y="675" width="30" height="30" as="geometry"/></mxCell><mxCell id="36" value="" style="edgeStyle=orthogonalEdgeStyle;rounded=0;orthogonalLoop=1;jettySize=auto;html=1;strokeColor=#457B9D;fontColor=#1D3557;fillColor=#A8DADC;" edge="1" parent="1" source="37" target="38"><mxGeometry relative="1" as="geometry"/></mxCell><mxCell id="37" value="添加面试邀约" style="whiteSpace=wrap;html=1;fillColor=#A8DADC;strokeColor=#457B9D;fontColor=#1D3557;rounded=1;arcSize=14;strokeWidth=2;" vertex="1" parent="1"><mxGeometry x="930" y="843" width="120" height="60" as="geometry"/></mxCell><mxCell id="38" value="结束" style="ellipse;whiteSpace=wrap;html=1;fillColor=#A8DADC;strokeColor=#457B9D;fontColor=#1D3557;rounded=1;arcSize=14;strokeWidth=2;" vertex="1" parent="1"><mxGeometry x="1175" y="844" width="80" height="57.5" as="geometry"/></mxCell><mxCell id="39" value="Y" style="text;html=1;align=center;verticalAlign=middle;resizable=0;points=[];autosize=1;strokeColor=none;fillColor=none;fontColor=#1D3557;" vertex="1" parent="1"><mxGeometry x="900" y="380" width="30" height="30" as="geometry"/></mxCell></root></mxGraphModel></diagram></mxfile>